<svg xmlns="http://www.w3.org/2000/svg" viewBox="0 0 1600 900" role="img" aria-label="Cyberpunk DJ festival stage"><defs><linearGradient id="sky" x1="0" x2="1" y1="0" y2="1"><stop offset="0" stop-color="#03040a"/><stop offset="0.55" stop-color="#11113a"/><stop offset="1" stop-color="#02040b"/></linearGradient><radialGradient id="portal" cx="68%" cy="35%" r="38%"><stop offset="0" stop-color="#ff45dd"/><stop offset="0.28" stop-color="#8b5cf6"/><stop offset="0.55" stop-color="#22d3ee" stop-opacity=".55"/><stop offset="1" stop-color="#22d3ee" stop-opacity="0"/></radialGradient><filter id="glow" x="-40%" y="-40%" width="180%" height="180%"><feGaussianBlur stdDeviation="9" result="blur"/><feMerge><feMergeNode in="blur"/><feMergeNode in="SourceGraphic"/></feMerge></filter></defs><rect width="1600" height="900" fill="url(#sky)"/><rect width="1600" height="900" fill="url(#portal)" opacity=".85"/><g opacity=".42" stroke="#22d3ee" stroke-width="2"><path d="M0 620h1600M0 690h1600M0 760h1600M180 900 760 0M410 900 920 0M770 900 1160 0M1120 900 1330 0"/></g><g filter="url(#glow)" fill="none" stroke-linecap="round"><path d="M0 260 990 420" stroke="#22d3ee" stroke-width="5"/><path d="M50 170 1180 475" stroke="#8b5cf6" stroke-width="4"/><path d="M210 55 1360 540" stroke="#f43f9d" stroke-width="4"/><path d="M1580 190 420 565" stroke="#22d3ee" stroke-width="5"/><circle cx="1090" cy="320" r="190" stroke="#f43f9d" stroke-width="12"/><circle cx="1090" cy="320" r="245" stroke="#22d3ee" stroke-width="5" opacity=".75"/></g><g fill="#060711"><path d="M0 700c160-55 270-20 390-58 155-48 330-72 520-8 210 72 382 35 690-25v291H0z" opacity=".84"/><path d="M0 735c310-68 430 45 690 20 245-24 425-94 910-15v160H0z"/></g><g fill="#10131f" stroke="#22d3ee" stroke-width="4" filter="url(#glow)"><path d="M905 604h470l72 195H785z"/><rect x="935" y="570" width="380" height="70" rx="18"/><circle cx="1015" cy="650" r="55" fill="#060711"/><circle cx="1015" cy="650" r="28" fill="#22d3ee"/><circle cx="1210" cy="650" r="55" fill="#060711"/><circle cx="1210" cy="650" r="28" fill="#f43f9d"/></g><g fill="#05050a"><circle cx="1240" cy="390" r="42"/><path d="M1212 430c60-28 110 10 125 70l55 230h-180l-45-205c-10-48 0-89 45-95z"/><path d="M1180 530c-88 38-166 55-270 68l6 42c110-6 210-22 305-65z"/><path d="M1285 520c52 30 90 80 126 150l-40 24c-45-62-88-105-135-126z"/></g><g fill="#22d3ee" opacity=".55"><circle cx="170" cy="720" r="4"/><circle cx="230" cy="745" r="5"/><circle cx="315" cy="705" r="4"/><circle cx="455" cy="748" r="5"/><circle cx="560" cy="710" r="4"/><circle cx="660" cy="740" r="5"/></g></svg>